<mxfile host="app.diagrams.net" agent="Mozilla/5.0 (Macintosh; Intel Mac OS X 10_15_7) AppleWebKit/537.36 (KHTML, like Gecko) Chrome/135.0.0.0 Safari/537.36" version="26.2.8">
  <diagram name="Page-1" id="wUduC1aC2RDsNrK8aEXa">
    <mxGraphModel dx="2724" dy="2300" grid="1" gridSize="10" guides="1" tooltips="1" connect="1" arrows="1" fold="1" page="1" pageScale="1" pageWidth="850" pageHeight="1100" math="0" shadow="0">
      <root>
        <mxCell id="0" />
        <mxCell id="1" parent="0" />
        <mxCell id="3qF4QzdiJy8iSaaMTcEM-1" value="SimulationManager" style="swimlane;fontStyle=1;align=center;verticalAlign=top;childLayout=stackLayout;horizontal=1;startSize=26;horizontalStack=0;resizeParent=1;resizeParentMax=0;resizeLast=0;collapsible=1;marginBottom=0;whiteSpace=wrap;html=1;" parent="1" vertex="1">
          <mxGeometry x="-80" y="-40" width="330" height="390" as="geometry" />
        </mxCell>
        <mxCell id="3qF4QzdiJy8iSaaMTcEM-2" value="- scheduler: Scheduler&lt;div&gt;- frame: SimulationFrame&lt;/div&gt;&lt;div&gt;- generatedTasks: List&amp;lt;Task&amp;gt;&lt;/div&gt;&lt;div&gt;- selectionPolicy: SelectionPolicy&lt;/div&gt;&lt;div&gt;+ timeLimit: int&lt;/div&gt;&lt;div&gt;+ maxProcessingTime: int&lt;/div&gt;&lt;div&gt;+ minProcessingTime: int&lt;/div&gt;&lt;div&gt;+ numberOfServers: int&lt;/div&gt;&lt;div&gt;+ numberOfClients: int&lt;/div&gt;&lt;div&gt;+ maxArrivalTime: int&lt;/div&gt;&lt;div&gt;+ minArrivalTime: int&lt;/div&gt;&lt;div&gt;- lock: &lt;u&gt;Object&lt;/u&gt;&lt;/div&gt;&lt;div&gt;- simulationGui: SimulationGui&lt;/div&gt;&lt;div&gt;- averageWaitingTime: double&lt;/div&gt;&lt;div&gt;- averageServiceTime: double&lt;/div&gt;&lt;div&gt;- peakHour: int&lt;/div&gt;" style="text;strokeColor=none;fillColor=none;align=left;verticalAlign=top;spacingLeft=4;spacingRight=4;overflow=hidden;rotatable=0;points=[[0,0.5],[1,0.5]];portConstraint=eastwest;whiteSpace=wrap;html=1;" parent="3qF4QzdiJy8iSaaMTcEM-1" vertex="1">
          <mxGeometry y="26" width="330" height="234" as="geometry" />
        </mxCell>
        <mxCell id="3qF4QzdiJy8iSaaMTcEM-3" value="" style="line;strokeWidth=1;fillColor=none;align=left;verticalAlign=middle;spacingTop=-1;spacingLeft=3;spacingRight=3;rotatable=0;labelPosition=right;points=[];portConstraint=eastwest;strokeColor=inherit;" parent="3qF4QzdiJy8iSaaMTcEM-1" vertex="1">
          <mxGeometry y="260" width="330" height="8" as="geometry" />
        </mxCell>
        <mxCell id="3qF4QzdiJy8iSaaMTcEM-4" value="+ generateRandomTasks(): void&lt;div&gt;+ run(): void&lt;/div&gt;&lt;div&gt;+ main(args: String[]): void {static}&lt;/div&gt;&lt;div&gt;+ initialize(): void&lt;/div&gt;&lt;div&gt;+ getServersLength() : int&lt;/div&gt;&lt;div&gt;+ findAverageWaitingServiceTime(): void&lt;/div&gt;" style="text;strokeColor=none;fillColor=none;align=left;verticalAlign=top;spacingLeft=4;spacingRight=4;overflow=hidden;rotatable=0;points=[[0,0.5],[1,0.5]];portConstraint=eastwest;whiteSpace=wrap;html=1;" parent="3qF4QzdiJy8iSaaMTcEM-1" vertex="1">
          <mxGeometry y="268" width="330" height="122" as="geometry" />
        </mxCell>
        <mxCell id="3qF4QzdiJy8iSaaMTcEM-5" value="Scheduler" style="swimlane;fontStyle=1;align=center;verticalAlign=top;childLayout=stackLayout;horizontal=1;startSize=26;horizontalStack=0;resizeParent=1;resizeParentMax=0;resizeLast=0;collapsible=1;marginBottom=0;whiteSpace=wrap;html=1;" parent="1" vertex="1">
          <mxGeometry x="580" y="30" width="380" height="200" as="geometry" />
        </mxCell>
        <mxCell id="3qF4QzdiJy8iSaaMTcEM-6" value="- servers: List&amp;lt;Server&amp;gt;&lt;div&gt;- maxNoServer: int&lt;/div&gt;&lt;div&gt;- maxTasksPerServer: int&lt;/div&gt;&lt;div&gt;- strategy: Strategy&lt;/div&gt;&lt;div&gt;- lock: &lt;u&gt;Object&lt;/u&gt;&lt;/div&gt;" style="text;strokeColor=none;fillColor=none;align=left;verticalAlign=top;spacingLeft=4;spacingRight=4;overflow=hidden;rotatable=0;points=[[0,0.5],[1,0.5]];portConstraint=eastwest;whiteSpace=wrap;html=1;" parent="3qF4QzdiJy8iSaaMTcEM-5" vertex="1">
          <mxGeometry y="26" width="380" height="84" as="geometry" />
        </mxCell>
        <mxCell id="3qF4QzdiJy8iSaaMTcEM-7" value="" style="line;strokeWidth=1;fillColor=none;align=left;verticalAlign=middle;spacingTop=-1;spacingLeft=3;spacingRight=3;rotatable=0;labelPosition=right;points=[];portConstraint=eastwest;strokeColor=inherit;" parent="3qF4QzdiJy8iSaaMTcEM-5" vertex="1">
          <mxGeometry y="110" width="380" height="8" as="geometry" />
        </mxCell>
        <mxCell id="3qF4QzdiJy8iSaaMTcEM-8" value="+ changeStrategy(selectionPolicy: SelectionPolicy): void&lt;div&gt;+ dispatchTask(task: Task): void&lt;/div&gt;&lt;div&gt;+ {synchronized} getServers(): List&amp;lt;Server&amp;gt;&lt;/div&gt;" style="text;strokeColor=none;fillColor=none;align=left;verticalAlign=top;spacingLeft=4;spacingRight=4;overflow=hidden;rotatable=0;points=[[0,0.5],[1,0.5]];portConstraint=eastwest;whiteSpace=wrap;html=1;" parent="3qF4QzdiJy8iSaaMTcEM-5" vertex="1">
          <mxGeometry y="118" width="380" height="82" as="geometry" />
        </mxCell>
        <mxCell id="3qF4QzdiJy8iSaaMTcEM-13" value="Strategy" style="swimlane;fontStyle=1;align=center;verticalAlign=top;childLayout=stackLayout;horizontal=1;startSize=26;horizontalStack=0;resizeParent=1;resizeParentMax=0;resizeLast=0;collapsible=1;marginBottom=0;whiteSpace=wrap;html=1;" parent="1" vertex="1">
          <mxGeometry x="340" y="350" width="310" height="60" as="geometry" />
        </mxCell>
        <mxCell id="3qF4QzdiJy8iSaaMTcEM-15" value="" style="line;strokeWidth=1;fillColor=none;align=left;verticalAlign=middle;spacingTop=-1;spacingLeft=3;spacingRight=3;rotatable=0;labelPosition=right;points=[];portConstraint=eastwest;strokeColor=inherit;" parent="3qF4QzdiJy8iSaaMTcEM-13" vertex="1">
          <mxGeometry y="26" width="310" height="8" as="geometry" />
        </mxCell>
        <mxCell id="3qF4QzdiJy8iSaaMTcEM-16" value="+ addTask(servers: List&amp;lt;Server&amp;gt;, task: Task): void" style="text;strokeColor=none;fillColor=none;align=left;verticalAlign=top;spacingLeft=4;spacingRight=4;overflow=hidden;rotatable=0;points=[[0,0.5],[1,0.5]];portConstraint=eastwest;whiteSpace=wrap;html=1;" parent="3qF4QzdiJy8iSaaMTcEM-13" vertex="1">
          <mxGeometry y="34" width="310" height="26" as="geometry" />
        </mxCell>
        <mxCell id="3qF4QzdiJy8iSaaMTcEM-17" value="TimeStrategy" style="swimlane;fontStyle=1;align=center;verticalAlign=top;childLayout=stackLayout;horizontal=1;startSize=26;horizontalStack=0;resizeParent=1;resizeParentMax=0;resizeLast=0;collapsible=1;marginBottom=0;whiteSpace=wrap;html=1;" parent="1" vertex="1">
          <mxGeometry x="50" y="510" width="310" height="60" as="geometry" />
        </mxCell>
        <mxCell id="3qF4QzdiJy8iSaaMTcEM-18" value="" style="line;strokeWidth=1;fillColor=none;align=left;verticalAlign=middle;spacingTop=-1;spacingLeft=3;spacingRight=3;rotatable=0;labelPosition=right;points=[];portConstraint=eastwest;strokeColor=inherit;" parent="3qF4QzdiJy8iSaaMTcEM-17" vertex="1">
          <mxGeometry y="26" width="310" height="8" as="geometry" />
        </mxCell>
        <mxCell id="3qF4QzdiJy8iSaaMTcEM-19" value="+ addTask(servers: List&amp;lt;Server&amp;gt;, task: Task): void" style="text;strokeColor=none;fillColor=none;align=left;verticalAlign=top;spacingLeft=4;spacingRight=4;overflow=hidden;rotatable=0;points=[[0,0.5],[1,0.5]];portConstraint=eastwest;whiteSpace=wrap;html=1;" parent="3qF4QzdiJy8iSaaMTcEM-17" vertex="1">
          <mxGeometry y="34" width="310" height="26" as="geometry" />
        </mxCell>
        <mxCell id="3qF4QzdiJy8iSaaMTcEM-20" value="ShortestQueueStrategy" style="swimlane;fontStyle=1;align=center;verticalAlign=top;childLayout=stackLayout;horizontal=1;startSize=26;horizontalStack=0;resizeParent=1;resizeParentMax=0;resizeLast=0;collapsible=1;marginBottom=0;whiteSpace=wrap;html=1;" parent="1" vertex="1">
          <mxGeometry x="540" y="510" width="310" height="60" as="geometry" />
        </mxCell>
        <mxCell id="3qF4QzdiJy8iSaaMTcEM-21" value="" style="line;strokeWidth=1;fillColor=none;align=left;verticalAlign=middle;spacingTop=-1;spacingLeft=3;spacingRight=3;rotatable=0;labelPosition=right;points=[];portConstraint=eastwest;strokeColor=inherit;" parent="3qF4QzdiJy8iSaaMTcEM-20" vertex="1">
          <mxGeometry y="26" width="310" height="8" as="geometry" />
        </mxCell>
        <mxCell id="3qF4QzdiJy8iSaaMTcEM-22" value="+ addTask(servers: List&amp;lt;Server&amp;gt;, task: Task): void" style="text;strokeColor=none;fillColor=none;align=left;verticalAlign=top;spacingLeft=4;spacingRight=4;overflow=hidden;rotatable=0;points=[[0,0.5],[1,0.5]];portConstraint=eastwest;whiteSpace=wrap;html=1;" parent="3qF4QzdiJy8iSaaMTcEM-20" vertex="1">
          <mxGeometry y="34" width="310" height="26" as="geometry" />
        </mxCell>
        <mxCell id="3qF4QzdiJy8iSaaMTcEM-25" value="" style="endArrow=open;endFill=1;endSize=12;html=1;rounded=0;exitX=1.009;exitY=0.595;exitDx=0;exitDy=0;exitPerimeter=0;entryX=0.005;entryY=0.719;entryDx=0;entryDy=0;entryPerimeter=0;" parent="1" source="3qF4QzdiJy8iSaaMTcEM-2" target="3qF4QzdiJy8iSaaMTcEM-6" edge="1">
          <mxGeometry width="160" relative="1" as="geometry">
            <mxPoint x="340" y="410" as="sourcePoint" />
            <mxPoint x="500" y="410" as="targetPoint" />
          </mxGeometry>
        </mxCell>
        <mxCell id="3qF4QzdiJy8iSaaMTcEM-27" value="" style="endArrow=none;html=1;rounded=0;entryX=0.5;entryY=0.942;entryDx=0;entryDy=0;entryPerimeter=0;" parent="1" target="3qF4QzdiJy8iSaaMTcEM-8" edge="1">
          <mxGeometry width="50" height="50" relative="1" as="geometry">
            <mxPoint x="770" y="380" as="sourcePoint" />
            <mxPoint x="450" y="380" as="targetPoint" />
          </mxGeometry>
        </mxCell>
        <mxCell id="3qF4QzdiJy8iSaaMTcEM-28" value="" style="endArrow=open;endFill=1;endSize=12;html=1;rounded=0;entryX=1;entryY=0.5;entryDx=0;entryDy=0;" parent="1" target="3qF4QzdiJy8iSaaMTcEM-13" edge="1">
          <mxGeometry width="160" relative="1" as="geometry">
            <mxPoint x="770" y="380" as="sourcePoint" />
            <mxPoint x="592" y="202" as="targetPoint" />
          </mxGeometry>
        </mxCell>
        <mxCell id="3qF4QzdiJy8iSaaMTcEM-29" value="" style="endArrow=block;dashed=1;endFill=0;endSize=12;html=1;rounded=0;entryX=0.248;entryY=0.885;entryDx=0;entryDy=0;entryPerimeter=0;exitX=0.677;exitY=0.017;exitDx=0;exitDy=0;exitPerimeter=0;" parent="1" source="3qF4QzdiJy8iSaaMTcEM-17" target="3qF4QzdiJy8iSaaMTcEM-16" edge="1">
          <mxGeometry width="160" relative="1" as="geometry">
            <mxPoint x="340" y="500" as="sourcePoint" />
            <mxPoint x="500" y="500" as="targetPoint" />
          </mxGeometry>
        </mxCell>
        <mxCell id="3qF4QzdiJy8iSaaMTcEM-30" value="" style="endArrow=block;dashed=1;endFill=0;endSize=12;html=1;rounded=0;entryX=0.484;entryY=1.038;entryDx=0;entryDy=0;entryPerimeter=0;exitX=0.394;exitY=-0.017;exitDx=0;exitDy=0;exitPerimeter=0;" parent="1" source="3qF4QzdiJy8iSaaMTcEM-20" target="3qF4QzdiJy8iSaaMTcEM-16" edge="1">
          <mxGeometry width="160" relative="1" as="geometry">
            <mxPoint x="270" y="521" as="sourcePoint" />
            <mxPoint x="427" y="417" as="targetPoint" />
          </mxGeometry>
        </mxCell>
        <mxCell id="3qF4QzdiJy8iSaaMTcEM-31" value="SimulationFrame" style="swimlane;fontStyle=1;align=center;verticalAlign=top;childLayout=stackLayout;horizontal=1;startSize=30;horizontalStack=0;resizeParent=1;resizeParentMax=0;resizeLast=0;collapsible=1;marginBottom=0;whiteSpace=wrap;html=1;" parent="1" vertex="1">
          <mxGeometry x="810" y="-750" width="480" height="110" as="geometry" />
        </mxCell>
        <mxCell id="3qF4QzdiJy8iSaaMTcEM-32" value="- writer: PrintWriter" style="text;strokeColor=none;fillColor=none;align=left;verticalAlign=top;spacingLeft=4;spacingRight=4;overflow=hidden;rotatable=0;points=[[0,0.5],[1,0.5]];portConstraint=eastwest;whiteSpace=wrap;html=1;" parent="3qF4QzdiJy8iSaaMTcEM-31" vertex="1">
          <mxGeometry y="30" width="480" height="26" as="geometry" />
        </mxCell>
        <mxCell id="3qF4QzdiJy8iSaaMTcEM-33" value="" style="line;strokeWidth=1;fillColor=none;align=left;verticalAlign=middle;spacingTop=-1;spacingLeft=3;spacingRight=3;rotatable=0;labelPosition=right;points=[];portConstraint=eastwest;strokeColor=inherit;" parent="3qF4QzdiJy8iSaaMTcEM-31" vertex="1">
          <mxGeometry y="56" width="480" height="8" as="geometry" />
        </mxCell>
        <mxCell id="3qF4QzdiJy8iSaaMTcEM-34" value="+ update(currentTime: Int, servers: List&amp;lt;Server&amp;gt;, waitingTasks: List&amp;lt;Task&amp;gt;): void&lt;div&gt;+ close(): void&amp;nbsp;&lt;/div&gt;" style="text;strokeColor=none;fillColor=none;align=left;verticalAlign=top;spacingLeft=4;spacingRight=4;overflow=hidden;rotatable=0;points=[[0,0.5],[1,0.5]];portConstraint=eastwest;whiteSpace=wrap;html=1;" parent="3qF4QzdiJy8iSaaMTcEM-31" vertex="1">
          <mxGeometry y="64" width="480" height="46" as="geometry" />
        </mxCell>
        <mxCell id="3qF4QzdiJy8iSaaMTcEM-35" value="Task" style="swimlane;fontStyle=1;align=center;verticalAlign=top;childLayout=stackLayout;horizontal=1;startSize=26;horizontalStack=0;resizeParent=1;resizeParentMax=0;resizeLast=0;collapsible=1;marginBottom=0;whiteSpace=wrap;html=1;" parent="1" vertex="1">
          <mxGeometry x="770" y="-350" width="160" height="134" as="geometry" />
        </mxCell>
        <mxCell id="3qF4QzdiJy8iSaaMTcEM-36" value="- ID: int&lt;div&gt;- arrivalTime: int&lt;/div&gt;&lt;div&gt;- serviceTime: int&lt;/div&gt;&lt;div&gt;- processingTime: int&lt;/div&gt;" style="text;strokeColor=none;fillColor=none;align=left;verticalAlign=top;spacingLeft=4;spacingRight=4;overflow=hidden;rotatable=0;points=[[0,0.5],[1,0.5]];portConstraint=eastwest;whiteSpace=wrap;html=1;" parent="3qF4QzdiJy8iSaaMTcEM-35" vertex="1">
          <mxGeometry y="26" width="160" height="74" as="geometry" />
        </mxCell>
        <mxCell id="3qF4QzdiJy8iSaaMTcEM-37" value="" style="line;strokeWidth=1;fillColor=none;align=left;verticalAlign=middle;spacingTop=-1;spacingLeft=3;spacingRight=3;rotatable=0;labelPosition=right;points=[];portConstraint=eastwest;strokeColor=inherit;" parent="3qF4QzdiJy8iSaaMTcEM-35" vertex="1">
          <mxGeometry y="100" width="160" height="8" as="geometry" />
        </mxCell>
        <mxCell id="3qF4QzdiJy8iSaaMTcEM-38" value="..." style="text;strokeColor=none;fillColor=none;align=left;verticalAlign=top;spacingLeft=4;spacingRight=4;overflow=hidden;rotatable=0;points=[[0,0.5],[1,0.5]];portConstraint=eastwest;whiteSpace=wrap;html=1;" parent="3qF4QzdiJy8iSaaMTcEM-35" vertex="1">
          <mxGeometry y="108" width="160" height="26" as="geometry" />
        </mxCell>
        <mxCell id="3qF4QzdiJy8iSaaMTcEM-39" value="Server" style="swimlane;fontStyle=1;align=center;verticalAlign=top;childLayout=stackLayout;horizontal=1;startSize=26;horizontalStack=0;resizeParent=1;resizeParentMax=0;resizeLast=0;collapsible=1;marginBottom=0;whiteSpace=wrap;html=1;" parent="1" vertex="1">
          <mxGeometry x="1140" y="-340" width="180" height="200" as="geometry" />
        </mxCell>
        <mxCell id="3qF4QzdiJy8iSaaMTcEM-40" value="- tasks: BlockingQueue&amp;lt;Task&amp;gt;&lt;div&gt;- waitingPeriod: AtomicInteger&lt;/div&gt;&lt;div&gt;- lock: &lt;u&gt;Object&lt;/u&gt;&lt;/div&gt;&lt;div&gt;- currentTask: Task&lt;/div&gt;&lt;div&gt;- tasksFinished: AtomicInteger&lt;/div&gt;&lt;div&gt;-tasksLength: AtomicInteger&lt;/div&gt;&lt;div&gt;-waitingTime: AtomicInteger&lt;/div&gt;&lt;div&gt;-serviceTime: AtomicInteger&lt;/div&gt;" style="text;strokeColor=none;fillColor=none;align=left;verticalAlign=top;spacingLeft=4;spacingRight=4;overflow=hidden;rotatable=0;points=[[0,0.5],[1,0.5]];portConstraint=eastwest;whiteSpace=wrap;html=1;" parent="3qF4QzdiJy8iSaaMTcEM-39" vertex="1">
          <mxGeometry y="26" width="180" height="124" as="geometry" />
        </mxCell>
        <mxCell id="3qF4QzdiJy8iSaaMTcEM-41" value="" style="line;strokeWidth=1;fillColor=none;align=left;verticalAlign=middle;spacingTop=-1;spacingLeft=3;spacingRight=3;rotatable=0;labelPosition=right;points=[];portConstraint=eastwest;strokeColor=inherit;" parent="3qF4QzdiJy8iSaaMTcEM-39" vertex="1">
          <mxGeometry y="150" width="180" height="8" as="geometry" />
        </mxCell>
        <mxCell id="3qF4QzdiJy8iSaaMTcEM-42" value="+ addTask(newTask: Task): void&lt;div&gt;+ run(): void&lt;/div&gt;" style="text;strokeColor=none;fillColor=none;align=left;verticalAlign=top;spacingLeft=4;spacingRight=4;overflow=hidden;rotatable=0;points=[[0,0.5],[1,0.5]];portConstraint=eastwest;whiteSpace=wrap;html=1;" parent="3qF4QzdiJy8iSaaMTcEM-39" vertex="1">
          <mxGeometry y="158" width="180" height="42" as="geometry" />
        </mxCell>
        <mxCell id="3qF4QzdiJy8iSaaMTcEM-43" value="" style="endArrow=diamondThin;endFill=0;endSize=24;html=1;rounded=0;exitX=1;exitY=0.5;exitDx=0;exitDy=0;entryX=0.056;entryY=0.218;entryDx=0;entryDy=0;entryPerimeter=0;" parent="1" source="3qF4QzdiJy8iSaaMTcEM-36" target="3qF4QzdiJy8iSaaMTcEM-40" edge="1">
          <mxGeometry width="160" relative="1" as="geometry">
            <mxPoint x="1200" y="400" as="sourcePoint" />
            <mxPoint x="1360" y="400" as="targetPoint" />
          </mxGeometry>
        </mxCell>
        <mxCell id="2kSAgboNpko6QXAw-KWe-3" value="" style="endArrow=open;endSize=12;dashed=1;html=1;rounded=0;entryX=0.5;entryY=0;entryDx=0;entryDy=0;exitX=0.375;exitY=0.96;exitDx=0;exitDy=0;exitPerimeter=0;" parent="1" source="3qF4QzdiJy8iSaaMTcEM-34" target="3qF4QzdiJy8iSaaMTcEM-35" edge="1">
          <mxGeometry width="160" relative="1" as="geometry">
            <mxPoint x="1000" y="-430" as="sourcePoint" />
            <mxPoint x="860" y="400" as="targetPoint" />
          </mxGeometry>
        </mxCell>
        <mxCell id="2kSAgboNpko6QXAw-KWe-4" value="" style="endArrow=open;endSize=12;dashed=1;html=1;rounded=0;entryX=0.349;entryY=0.019;entryDx=0;entryDy=0;entryPerimeter=0;" parent="1" target="3qF4QzdiJy8iSaaMTcEM-39" edge="1" source="3qF4QzdiJy8iSaaMTcEM-34">
          <mxGeometry width="160" relative="1" as="geometry">
            <mxPoint x="1330" y="610" as="sourcePoint" />
            <mxPoint x="1218" y="403" as="targetPoint" />
          </mxGeometry>
        </mxCell>
        <mxCell id="fweqNCso5zk0HHUbNPpS-1" value="MainGui" style="swimlane;fontStyle=1;align=center;verticalAlign=top;childLayout=stackLayout;horizontal=1;startSize=26;horizontalStack=0;resizeParent=1;resizeParentMax=0;resizeLast=0;collapsible=1;marginBottom=0;whiteSpace=wrap;html=1;" vertex="1" parent="1">
          <mxGeometry x="-180" y="-470" width="250" height="104" as="geometry" />
        </mxCell>
        <mxCell id="fweqNCso5zk0HHUbNPpS-2" value="- simulationManager: SimulationManager" style="text;strokeColor=none;fillColor=none;align=left;verticalAlign=top;spacingLeft=4;spacingRight=4;overflow=hidden;rotatable=0;points=[[0,0.5],[1,0.5]];portConstraint=eastwest;whiteSpace=wrap;html=1;" vertex="1" parent="fweqNCso5zk0HHUbNPpS-1">
          <mxGeometry y="26" width="250" height="44" as="geometry" />
        </mxCell>
        <mxCell id="fweqNCso5zk0HHUbNPpS-3" value="" style="line;strokeWidth=1;fillColor=none;align=left;verticalAlign=middle;spacingTop=-1;spacingLeft=3;spacingRight=3;rotatable=0;labelPosition=right;points=[];portConstraint=eastwest;strokeColor=inherit;" vertex="1" parent="fweqNCso5zk0HHUbNPpS-1">
          <mxGeometry y="70" width="250" height="8" as="geometry" />
        </mxCell>
        <mxCell id="fweqNCso5zk0HHUbNPpS-4" value="+ main(args: String[]): void (static)" style="text;strokeColor=none;fillColor=none;align=left;verticalAlign=top;spacingLeft=4;spacingRight=4;overflow=hidden;rotatable=0;points=[[0,0.5],[1,0.5]];portConstraint=eastwest;whiteSpace=wrap;html=1;" vertex="1" parent="fweqNCso5zk0HHUbNPpS-1">
          <mxGeometry y="78" width="250" height="26" as="geometry" />
        </mxCell>
        <mxCell id="fweqNCso5zk0HHUbNPpS-5" value="SetupGui" style="swimlane;fontStyle=1;align=center;verticalAlign=top;childLayout=stackLayout;horizontal=1;startSize=26;horizontalStack=0;resizeParent=1;resizeParentMax=0;resizeLast=0;collapsible=1;marginBottom=0;whiteSpace=wrap;html=1;" vertex="1" parent="1">
          <mxGeometry x="-657" y="-800" width="465" height="204" as="geometry" />
        </mxCell>
        <mxCell id="fweqNCso5zk0HHUbNPpS-6" value="- sim: SimulationManager&lt;div&gt;- policyComboBox: JComboBox&amp;lt;SelectionPolicy&amp;gt;&lt;/div&gt;&lt;div&gt;- timeLimitField: JTextField&lt;/div&gt;&lt;div&gt;- maxProcessingField: JTextField&lt;/div&gt;&lt;div&gt;- numberOfServersField: JTextField&lt;/div&gt;&lt;div&gt;- numberOfClientsField: JTextField&lt;/div&gt;&lt;div&gt;- maxArrivalFiled: JTextField&lt;/div&gt;&lt;div&gt;- minArrivalField: JTextField&lt;/div&gt;" style="text;strokeColor=none;fillColor=none;align=left;verticalAlign=top;spacingLeft=4;spacingRight=4;overflow=hidden;rotatable=0;points=[[0,0.5],[1,0.5]];portConstraint=eastwest;whiteSpace=wrap;html=1;" vertex="1" parent="fweqNCso5zk0HHUbNPpS-5">
          <mxGeometry y="26" width="465" height="144" as="geometry" />
        </mxCell>
        <mxCell id="fweqNCso5zk0HHUbNPpS-7" value="" style="line;strokeWidth=1;fillColor=none;align=left;verticalAlign=middle;spacingTop=-1;spacingLeft=3;spacingRight=3;rotatable=0;labelPosition=right;points=[];portConstraint=eastwest;strokeColor=inherit;" vertex="1" parent="fweqNCso5zk0HHUbNPpS-5">
          <mxGeometry y="170" width="465" height="8" as="geometry" />
        </mxCell>
        <mxCell id="fweqNCso5zk0HHUbNPpS-8" value="..." style="text;strokeColor=none;fillColor=none;align=left;verticalAlign=top;spacingLeft=4;spacingRight=4;overflow=hidden;rotatable=0;points=[[0,0.5],[1,0.5]];portConstraint=eastwest;whiteSpace=wrap;html=1;" vertex="1" parent="fweqNCso5zk0HHUbNPpS-5">
          <mxGeometry y="178" width="465" height="26" as="geometry" />
        </mxCell>
        <mxCell id="fweqNCso5zk0HHUbNPpS-9" value="SimulationGui" style="swimlane;fontStyle=1;align=center;verticalAlign=top;childLayout=stackLayout;horizontal=1;startSize=26;horizontalStack=0;resizeParent=1;resizeParentMax=0;resizeLast=0;collapsible=1;marginBottom=0;whiteSpace=wrap;html=1;" vertex="1" parent="1">
          <mxGeometry x="130" y="-686" width="470" height="114" as="geometry" />
        </mxCell>
        <mxCell id="fweqNCso5zk0HHUbNPpS-10" value="- servers: List&amp;lt;Server&amp;gt;&lt;div&gt;- waitingTasks: List&amp;lt;Task&amp;gt;&lt;/div&gt;&lt;div&gt;- currentTime: int&lt;/div&gt;" style="text;strokeColor=none;fillColor=none;align=left;verticalAlign=top;spacingLeft=4;spacingRight=4;overflow=hidden;rotatable=0;points=[[0,0.5],[1,0.5]];portConstraint=eastwest;whiteSpace=wrap;html=1;" vertex="1" parent="fweqNCso5zk0HHUbNPpS-9">
          <mxGeometry y="26" width="470" height="54" as="geometry" />
        </mxCell>
        <mxCell id="fweqNCso5zk0HHUbNPpS-11" value="" style="line;strokeWidth=1;fillColor=none;align=left;verticalAlign=middle;spacingTop=-1;spacingLeft=3;spacingRight=3;rotatable=0;labelPosition=right;points=[];portConstraint=eastwest;strokeColor=inherit;" vertex="1" parent="fweqNCso5zk0HHUbNPpS-9">
          <mxGeometry y="80" width="470" height="8" as="geometry" />
        </mxCell>
        <mxCell id="fweqNCso5zk0HHUbNPpS-12" value="+ update(servers: List&amp;lt;Server&amp;gt;, waitingTasks: List&amp;lt;Task&amp;gt;, currentTime: int): void" style="text;strokeColor=none;fillColor=none;align=left;verticalAlign=top;spacingLeft=4;spacingRight=4;overflow=hidden;rotatable=0;points=[[0,0.5],[1,0.5]];portConstraint=eastwest;whiteSpace=wrap;html=1;" vertex="1" parent="fweqNCso5zk0HHUbNPpS-9">
          <mxGeometry y="88" width="470" height="26" as="geometry" />
        </mxCell>
        <mxCell id="fweqNCso5zk0HHUbNPpS-13" value="" style="endArrow=open;endFill=1;endSize=12;html=1;rounded=0;exitX=0.831;exitY=-0.005;exitDx=0;exitDy=0;exitPerimeter=0;entryX=0.003;entryY=0.028;entryDx=0;entryDy=0;entryPerimeter=0;" edge="1" parent="1" source="3qF4QzdiJy8iSaaMTcEM-1" target="3qF4QzdiJy8iSaaMTcEM-34">
          <mxGeometry width="160" relative="1" as="geometry">
            <mxPoint x="263" y="135" as="sourcePoint" />
            <mxPoint x="592" y="126" as="targetPoint" />
          </mxGeometry>
        </mxCell>
        <mxCell id="fweqNCso5zk0HHUbNPpS-14" value="" style="endArrow=open;endFill=1;endSize=12;html=1;rounded=0;entryX=0.331;entryY=0.94;entryDx=0;entryDy=0;entryPerimeter=0;exitX=0.593;exitY=0.003;exitDx=0;exitDy=0;exitPerimeter=0;" edge="1" parent="1" source="3qF4QzdiJy8iSaaMTcEM-1" target="fweqNCso5zk0HHUbNPpS-12">
          <mxGeometry width="160" relative="1" as="geometry">
            <mxPoint x="204" y="-32" as="sourcePoint" />
            <mxPoint x="110" y="-460" as="targetPoint" />
          </mxGeometry>
        </mxCell>
        <mxCell id="fweqNCso5zk0HHUbNPpS-20" value="" style="endArrow=none;html=1;rounded=0;entryX=0.739;entryY=1.06;entryDx=0;entryDy=0;entryPerimeter=0;" edge="1" parent="1" target="fweqNCso5zk0HHUbNPpS-12">
          <mxGeometry width="50" height="50" relative="1" as="geometry">
            <mxPoint x="480" y="-280" as="sourcePoint" />
            <mxPoint x="530" y="-400" as="targetPoint" />
          </mxGeometry>
        </mxCell>
        <mxCell id="fweqNCso5zk0HHUbNPpS-21" value="" style="endArrow=open;endFill=1;endSize=12;html=1;rounded=0;entryX=0;entryY=0.5;entryDx=0;entryDy=0;" edge="1" parent="1" target="3qF4QzdiJy8iSaaMTcEM-36">
          <mxGeometry width="160" relative="1" as="geometry">
            <mxPoint x="480" y="-280" as="sourcePoint" />
            <mxPoint x="296" y="-564" as="targetPoint" />
          </mxGeometry>
        </mxCell>
        <mxCell id="fweqNCso5zk0HHUbNPpS-22" value="" style="endArrow=none;html=1;rounded=0;entryX=0.684;entryY=1.005;entryDx=0;entryDy=0;entryPerimeter=0;" edge="1" parent="1" target="fweqNCso5zk0HHUbNPpS-12">
          <mxGeometry width="50" height="50" relative="1" as="geometry">
            <mxPoint x="451" y="-160" as="sourcePoint" />
            <mxPoint x="487" y="-560" as="targetPoint" />
          </mxGeometry>
        </mxCell>
        <mxCell id="fweqNCso5zk0HHUbNPpS-23" value="" style="endArrow=open;endFill=1;endSize=12;html=1;rounded=0;entryX=0;entryY=0.5;entryDx=0;entryDy=0;" edge="1" parent="1" target="3qF4QzdiJy8iSaaMTcEM-42">
          <mxGeometry width="160" relative="1" as="geometry">
            <mxPoint x="450" y="-160" as="sourcePoint" />
            <mxPoint x="780" y="-277" as="targetPoint" />
          </mxGeometry>
        </mxCell>
        <mxCell id="fweqNCso5zk0HHUbNPpS-25" value="" style="endArrow=open;endFill=1;endSize=12;html=1;rounded=0;entryX=0.074;entryY=0.002;entryDx=0;entryDy=0;entryPerimeter=0;exitX=0.488;exitY=1.014;exitDx=0;exitDy=0;exitPerimeter=0;" edge="1" parent="1" source="fweqNCso5zk0HHUbNPpS-4" target="3qF4QzdiJy8iSaaMTcEM-1">
          <mxGeometry width="160" relative="1" as="geometry">
            <mxPoint x="-50" y="-340" as="sourcePoint" />
            <mxPoint x="296" y="-564" as="targetPoint" />
          </mxGeometry>
        </mxCell>
        <mxCell id="fweqNCso5zk0HHUbNPpS-29" value="" style="endArrow=none;dashed=1;html=1;rounded=0;exitX=0.418;exitY=0.018;exitDx=0;exitDy=0;exitPerimeter=0;" edge="1" parent="1" source="fweqNCso5zk0HHUbNPpS-1">
          <mxGeometry width="50" height="50" relative="1" as="geometry">
            <mxPoint x="360" y="-410" as="sourcePoint" />
            <mxPoint x="-70" y="-630" as="targetPoint" />
          </mxGeometry>
        </mxCell>
        <mxCell id="fweqNCso5zk0HHUbNPpS-30" value="" style="endArrow=open;endSize=12;dashed=1;html=1;rounded=0;entryX=0;entryY=0.5;entryDx=0;entryDy=0;" edge="1" parent="1" target="fweqNCso5zk0HHUbNPpS-10">
          <mxGeometry width="160" relative="1" as="geometry">
            <mxPoint x="-70" y="-630" as="sourcePoint" />
            <mxPoint x="860" y="-340" as="targetPoint" />
          </mxGeometry>
        </mxCell>
        <mxCell id="fweqNCso5zk0HHUbNPpS-31" value="" style="endArrow=diamondThin;endFill=0;endSize=24;html=1;rounded=0;entryX=-0.002;entryY=0.426;entryDx=0;entryDy=0;entryPerimeter=0;" edge="1" parent="1" target="3qF4QzdiJy8iSaaMTcEM-2">
          <mxGeometry width="160" relative="1" as="geometry">
            <mxPoint x="-420" y="80" as="sourcePoint" />
            <mxPoint x="-192.5" y="-230" as="targetPoint" />
          </mxGeometry>
        </mxCell>
        <mxCell id="fweqNCso5zk0HHUbNPpS-32" value="" style="endArrow=none;html=1;rounded=0;entryX=0.468;entryY=0.966;entryDx=0;entryDy=0;entryPerimeter=0;" edge="1" parent="1" target="fweqNCso5zk0HHUbNPpS-8">
          <mxGeometry width="50" height="50" relative="1" as="geometry">
            <mxPoint x="-424" y="80" as="sourcePoint" />
            <mxPoint x="130" y="-340" as="targetPoint" />
          </mxGeometry>
        </mxCell>
      </root>
    </mxGraphModel>
  </diagram>
</mxfile>
